<?xml version="1.0" encoding="utf-8"?>
<!-- Generator: Adobe Illustrator 23.0.3, SVG Export Plug-In . SVG Version: 6.00 Build 0)  -->
<svg version="1.1" id="Layer_1" xmlns="http://www.w3.org/2000/svg" xmlns:xlink="http://www.w3.org/1999/xlink" x="0px" y="0px"
	 viewBox="0 0 100 100" style="enable-background:new 0 0 100 100;" xml:space="preserve">
<style type="text/css">
	.st0{display:none;fill:#ED1C24;}
	.st1{display:none;fill:#00FFFF;}
	.st2{fill:#FFFEF9;stroke:#FFFEF9;stroke-width:2.9989;stroke-linecap:round;stroke-linejoin:round;}
	.st3{fill:#FFFEF9;}
	.st4{fill:#001689;}
	.st5{fill:none;stroke:#005880;stroke-width:0.7851;}
	.st6{fill:none;stroke:#005880;stroke-width:0.471;}
	.st7{fill:none;stroke:#001689;stroke-width:1.2102;}
	.st8{fill:none;stroke:#001689;stroke-width:0.7851;}
	.st9{fill:#001689;stroke:#001689;stroke-width:0.8736;stroke-linecap:round;}
	.st10{fill:#231F20;stroke:#231F20;stroke-width:0.2911;}
	.st11{fill:#001689;stroke:#005880;stroke-width:0.8736;stroke-linecap:round;}
	.st12{fill:none;stroke:#001689;stroke-width:0.8736;stroke-linecap:round;}
</style>
<rect class="st0" width="100" height="100"/>
<rect x="1.79" y="2.28" class="st1" width="96" height="96"/>
<g>
	<g>
		<path class="st2" d="M89.85,29.99c-1.7,0-3.08,1.38-3.08,3.09c0,1.7,1.38,3.08,3.08,3.08c1.71,0,3.09-1.38,3.09-3.08
			C92.94,31.37,91.55,29.99,89.85,29.99z"/>
		<path class="st2" d="M56.17,25.42c3.52,0.58,7.99,1.77,12.67,4.15c10.44,5.3,15.54,20.14,15.54,20.14l0.48-19.54l12.21-5.49
			L63.52,4.67l-13.4,6.22l2.36,1.36l-2.71-1.29l-0.07-0.13l-0.18,0.01L36.94,4.85L2.29,24.14l12.77,6.04l0.08-0.04l0.17,18.49
			c8.1-18.55,22.82-22.82,30.12-23.78l3.55,0.03c0,0,1.96-0.13,5.08,0.23c-1.35-0.15-2.72-0.23-4.11-0.23
			c-15.98,0-29.58,10.23-34.59,24.49h2.41c-1.4,3.74-2.17,7.8-2.17,12.03c0,16.04,10.99,29.51,25.86,33.29
			c2.74,0.71,5.62,1.09,8.58,1.09c18.92,0,34.26-15.39,34.26-34.37c0,0,0,0,0-0.01c0,0,0-0.01,0-0.01c0-2.57-0.28-5.07-0.82-7.48
			c-0.02-0.09-0.04-0.18-0.06-0.27c-0.01-0.04-0.02-0.08-0.03-0.11c-0.33-1.43-0.76-2.82-1.26-4.17l0.6-2.49
			C78.39,34.52,69.38,27.68,56.17,25.42z M55.15,25.26c-0.09-0.01-0.17-0.02-0.25-0.04C54.98,25.24,55.06,25.25,55.15,25.26z"/>
	</g>
	<path class="st3" d="M84.47,61.51c0,18.98-15.34,34.37-34.25,34.37c-18.92,0-34.26-15.39-34.26-34.37
		c0-18.98,15.34-34.37,34.26-34.37C69.14,27.14,84.47,42.53,84.47,61.51z"/>
	<path class="st3" d="M15.3,30.21L2.46,24.23L37.1,4.93l47.99,22.84l-0.51,20.71c0,0-5.13-13.52-15.57-18.82
		c-10.44-5.3-19.87-4.68-19.87-4.68l-11.28-0.11L15.3,30.21z"/>
	<g>
		<polyline class="st4" points="84.36,30.56 97.24,24.77 63.68,4.75 50.28,10.98 		"/>
		<path class="st5" d="M84.95,29.03"/>
		<path class="st5" d="M49.28,11.15"/>
		<path class="st5" d="M49.14,24.97"/>
		<path class="st6" d="M84.47,61.5c0,18.97-15.38,34.35-34.35,34.35c-18.97,0-34.35-15.38-34.35-34.35
			c0-18.97,15.38-34.35,34.35-34.35C69.09,27.14,84.47,42.53,84.47,61.5z"/>
		<path class="st7" d="M84.47,61.5c0,18.97-15.38,34.35-34.35,34.35c-18.97,0-34.35-15.38-34.35-34.35
			c0-18.97,15.38-34.35,34.35-34.35C69.09,27.14,84.47,42.53,84.47,61.5z"/>
		<path class="st7" d="M71.58,61.5c0,11.84-9.61,21.45-21.45,21.45c-11.85,0-21.45-9.61-21.45-21.45c0-11.85,9.6-21.45,21.45-21.45
			C61.97,40.05,71.58,49.65,71.58,61.5z"/>
		<g>
			<path class="st4" d="M25.2,64.49l0.17,1.42l-4.97,0.58c-0.1-0.6-0.17-1.03-0.2-1.3c-0.06-0.49,0-0.88,0.18-1.18
				c0.18-0.29,0.47-0.46,0.86-0.51c0.23-0.03,0.45,0.03,0.66,0.19c0.21,0.15,0.35,0.32,0.42,0.53c0.05-0.4,0.17-0.71,0.37-0.91
				c0.2-0.21,0.49-0.33,0.86-0.38c0.44-0.05,0.8,0.07,1.1,0.36C24.96,63.57,25.14,63.98,25.2,64.49z M20.86,65.75l1.43-0.16
				c0-0.14-0.02-0.32-0.04-0.53c-0.08-0.64-0.37-0.93-0.9-0.87c-0.46,0.05-0.65,0.38-0.59,0.97C20.8,65.37,20.83,65.57,20.86,65.75z
				 M22.82,65.52l1.9-0.22c-0.01-0.23-0.01-0.41-0.03-0.54c-0.05-0.42-0.17-0.72-0.35-0.9c-0.18-0.18-0.45-0.25-0.8-0.2
				c-0.32,0.04-0.55,0.16-0.68,0.36c-0.13,0.2-0.17,0.52-0.12,0.96L22.82,65.52z"/>
			<path class="st4" d="M25.08,59.32l-1.06,0.31l-0.06,1.86l1.04,0.4l-0.03,0.77l-4.99-2.2l0-0.18l5.13-1.71L25.08,59.32z
				 M21.28,60.44l2.18,0.85l0.05-1.48L21.28,60.44z"/>
			<path class="st4" d="M23.2,56.69l2.21,0.36l-0.11,0.67l-2.21-0.36l-2.99,1.14l0.12-0.69l2.36-0.87l-1.95-1.58l0.11-0.69
				L23.2,56.69z"/>
			<path class="st4" d="M23.22,48.31l0.45,0.44c-0.24,0.14-0.44,0.42-0.63,0.86c-0.17,0.41-0.14,0.8,0.11,1.2
				c0.24,0.39,0.64,0.71,1.19,0.94c0.52,0.22,1,0.28,1.43,0.17c0.43-0.11,0.73-0.37,0.9-0.76c0.18-0.43,0.17-0.83-0.04-1.19
				l0.63-0.14c0.21,0.52,0.19,1.07-0.06,1.64c-0.26,0.6-0.67,0.99-1.25,1.14c-0.58,0.17-1.23,0.09-1.93-0.21
				c-0.69-0.29-1.18-0.72-1.48-1.28c-0.3-0.56-0.32-1.14-0.07-1.72C22.68,48.88,22.93,48.52,23.22,48.31z"/>
			<path class="st4" d="M25.81,48.17c-0.61-0.39-1.02-0.88-1.23-1.45c-0.21-0.57-0.14-1.11,0.19-1.63c0.38-0.58,0.86-0.9,1.44-0.97
				c0.58-0.07,1.2,0.12,1.87,0.56c0.69,0.45,1.13,0.96,1.31,1.52c0.19,0.56,0.09,1.14-0.28,1.72c-0.34,0.53-0.82,0.81-1.43,0.84
				C27.08,48.78,26.45,48.59,25.81,48.17z M26.2,47.57c0.48,0.32,0.95,0.48,1.39,0.5c0.45,0.02,0.78-0.14,1.01-0.48
				c0.25-0.4,0.3-0.79,0.14-1.18c-0.16-0.4-0.51-0.77-1.05-1.12c-1.08-0.7-1.88-0.66-2.4,0.14c-0.23,0.36-0.26,0.72-0.09,1.09
				C25.37,46.89,25.7,47.24,26.2,47.57z"/>
			<path class="st4" d="M32.47,43.61l-2.49-0.47c-0.1,0.11-0.28,0.28-0.52,0.51l1.61,1.48l-0.46,0.5l-3.69-3.38
				c0.02-0.02,0.13-0.16,0.34-0.41c0.21-0.26,0.37-0.44,0.47-0.55c0.81-0.88,1.57-1.01,2.28-0.36c0.23,0.21,0.37,0.47,0.43,0.79
				c0.06,0.31,0.01,0.59-0.12,0.83l2.68,0.48L32.47,43.61z M27.83,42.17l1.2,1.1c0.13-0.11,0.24-0.22,0.35-0.33
				c0.28-0.3,0.43-0.57,0.46-0.8c0.03-0.23-0.08-0.46-0.33-0.68c-0.21-0.19-0.42-0.25-0.65-0.19c-0.23,0.07-0.49,0.26-0.78,0.58
				C28.04,41.9,27.95,42.01,27.83,42.17z"/>
			<path class="st4" d="M35.56,41.01l-2.38-0.86c-0.12,0.09-0.32,0.24-0.59,0.42l1.35,1.72l-0.54,0.42l-3.1-3.92
				c0.02-0.02,0.15-0.13,0.4-0.35c0.25-0.22,0.43-0.37,0.55-0.47c0.94-0.75,1.71-0.74,2.3,0.01c0.19,0.24,0.29,0.53,0.3,0.84
				c0,0.32-0.08,0.58-0.25,0.8l2.57,0.91L35.56,41.01z M31.22,38.85l1.01,1.27c0.14-0.08,0.28-0.17,0.4-0.27
				c0.32-0.26,0.52-0.49,0.58-0.71c0.07-0.22-0.01-0.46-0.22-0.73c-0.17-0.22-0.38-0.32-0.61-0.29c-0.23,0.03-0.52,0.18-0.86,0.45
				C31.46,38.61,31.36,38.71,31.22,38.85z"/>
			<path class="st4" d="M33.99,36.02l0.6-0.33l1.66,2.99c0.15,0.27,0.35,0.44,0.62,0.52c0.27,0.08,0.54,0.04,0.81-0.11
				c0.29-0.16,0.48-0.38,0.56-0.64c0.07-0.26,0.03-0.54-0.13-0.82l-1.65-2.98l0.59-0.33l1.69,3.04c0.24,0.44,0.3,0.86,0.16,1.26
				c-0.14,0.4-0.44,0.73-0.92,1c-0.49,0.27-0.93,0.36-1.33,0.26c-0.4-0.09-0.72-0.37-0.98-0.82L33.99,36.02z"/>
			<path class="st4" d="M41.95,32.84l-0.08,0.63c-0.41-0.13-0.77-0.14-1.08-0.03c-0.49,0.17-0.82,0.48-0.99,0.93
				c-0.16,0.45-0.15,0.96,0.05,1.53c0.19,0.55,0.48,0.94,0.88,1.18c0.4,0.23,0.83,0.27,1.32,0.1c0.34-0.12,0.59-0.32,0.73-0.6
				l-0.38-1.11l-0.66,0.23l-0.19-0.55l1.3-0.45l0.71,2.05c-0.12,0.21-0.32,0.41-0.6,0.6c-0.28,0.2-0.56,0.34-0.85,0.44
				c-0.65,0.23-1.24,0.18-1.77-0.13c-0.53-0.31-0.92-0.83-1.17-1.57c-0.25-0.73-0.25-1.4,0.01-1.99c0.26-0.6,0.74-1.02,1.44-1.26
				C41.1,32.68,41.54,32.67,41.95,32.84z"/>
			<path class="st4" d="M47.26,36.53l-0.51-0.98l-1.83,0.31l-0.19,1.1l-0.76,0.12l1.17-5.33l0.18-0.03L48,36.4L47.26,36.53z
				 M45.41,33.02l-0.4,2.31l1.46-0.24L45.41,33.02z"/>
			<path class="st4" d="M49.33,32.02l0.16,4.39l-0.68,0.02l-0.16-4.38l-1.59,0.06l-0.02-0.61l3.93-0.14L51,31.96L49.33,32.02z"/>
			<path class="st4" d="M52.79,32.12l-0.16,1.38l1.61,0.18l-0.06,0.58l-1.61-0.18l-0.2,1.79l2.26,0.26l-0.07,0.61l-2.93-0.33
				l0.56-4.97l2.93,0.33l-0.07,0.61L52.79,32.12z"/>
			<path class="st4" d="M56.23,37.14l-0.97-0.27l1.33-4.82c0.63,0.15,1.02,0.24,1.2,0.29c0.67,0.19,1.15,0.54,1.43,1.06
				c0.28,0.52,0.33,1.11,0.14,1.79C58.87,36.94,57.83,37.58,56.23,37.14z M57.08,32.83l-0.99,3.6c0.14,0.07,0.32,0.13,0.54,0.18
				c0.46,0.13,0.87,0.05,1.23-0.21c0.36-0.27,0.62-0.72,0.79-1.33c0.32-1.14-0.04-1.85-1.07-2.13
				C57.52,32.91,57.35,32.88,57.08,32.83z"/>
			<path class="st4" d="M66.37,36.33l-0.49,0.39c-0.11-0.25-0.37-0.49-0.77-0.72c-0.38-0.22-0.78-0.23-1.2-0.03
				c-0.42,0.2-0.77,0.55-1.07,1.07c-0.28,0.5-0.4,0.96-0.33,1.4c0.06,0.44,0.28,0.77,0.65,0.98c0.41,0.23,0.81,0.27,1.19,0.1
				l0.06,0.64c-0.54,0.15-1.08,0.06-1.62-0.25c-0.57-0.32-0.89-0.78-0.99-1.38c-0.09-0.6,0.05-1.23,0.44-1.9
				c0.37-0.65,0.85-1.08,1.45-1.32c0.59-0.23,1.17-0.18,1.72,0.13C65.87,35.73,66.2,36.02,66.37,36.33z"/>
			<path class="st4" d="M66.04,38.8c0.46-0.56,0.99-0.91,1.57-1.06c0.59-0.15,1.13-0.02,1.6,0.37c0.54,0.44,0.81,0.95,0.81,1.53
				c0,0.58-0.25,1.18-0.76,1.8c-0.52,0.64-1.07,1.01-1.65,1.14c-0.58,0.12-1.14-0.03-1.68-0.47c-0.49-0.4-0.71-0.9-0.67-1.51
				C65.29,39.99,65.55,39.39,66.04,38.8z M66.59,39.25c-0.36,0.44-0.58,0.89-0.65,1.33c-0.07,0.44,0.06,0.79,0.37,1.05
				c0.36,0.29,0.75,0.39,1.16,0.27c0.41-0.12,0.82-0.42,1.23-0.92c0.82-1,0.86-1.8,0.12-2.4c-0.33-0.27-0.69-0.34-1.08-0.21
				C67.36,38.5,66.97,38.79,66.59,39.25z"/>
			<path class="st4" d="M70.07,46.3l1.08-4.34l-2.72,2.34l-0.43-0.49l3.79-3.27l0.18,0.21L71,44.91l2.62-2.26l0.43,0.49l-3.84,3.31
				L70.07,46.3z"/>
			<path class="st4" d="M75.4,46.3l-3.74,2.3l-0.36-0.58l3.74-2.3l-0.83-1.36l0.52-0.32l2.06,3.35l-0.52,0.32L75.4,46.3z"/>
			<path class="st4" d="M73.61,52.53l0.82-0.74l-0.75-1.7l-1.11,0.09l-0.31-0.7l5.46-0.2l0.07,0.16l-3.87,3.77L73.61,52.53z
				 M76.54,49.87l-2.33,0.19l0.6,1.36L76.54,49.87z"/>
			<path class="st4" d="M74.04,53.85l4.79-1.46l0.2,0.65l-4.78,1.46L74.04,53.85z"/>
			<path class="st4" d="M75.05,58.8l3.18-3.15l-3.54,0.59l-0.11-0.64l4.93-0.83l0.04,0.27l-2.99,3.05l3.41-0.57l0.11,0.64l-5,0.84
				L75.05,58.8z"/>
			<path class="st4" d="M79.6,60.41l-1.39,0.02l0.02,1.62l-0.58,0.01l-0.02-1.62l-1.8,0.02l0.03,2.27l-0.61,0.01l-0.04-2.95l5-0.06
				l0.04,2.95l-0.61,0.01L79.6,60.41z"/>
			<path class="st4" d="M74.81,66.19l2.31-1.04c0.02-0.15,0.07-0.39,0.13-0.71l-2.16-0.3l0.09-0.67l4.96,0.68
				c0,0.03-0.02,0.2-0.05,0.53c-0.03,0.33-0.05,0.57-0.07,0.72c-0.16,1.19-0.72,1.73-1.67,1.59c-0.31-0.04-0.58-0.18-0.8-0.4
				c-0.23-0.23-0.35-0.48-0.37-0.75l-2.48,1.12L74.81,66.19z M79.45,64.74l-1.61-0.22c-0.05,0.16-0.08,0.31-0.1,0.47
				c-0.06,0.41-0.03,0.71,0.07,0.92c0.11,0.2,0.33,0.33,0.66,0.38c0.28,0.04,0.49-0.03,0.64-0.22c0.15-0.18,0.25-0.49,0.31-0.92
				C79.43,65.08,79.44,64.94,79.45,64.74z"/>
		</g>
		<g>
			<path class="st4" d="M31.58,86.02l1.43-2.47l-2.59,1.56l-0.11-0.1l1.11-2.82l-2.21,1.8l-0.43-0.37l3.46-2.8L32.44,81l-1.27,3.11
				l2.8-1.81l0.21,0.18l-2.17,3.9L31.58,86.02z"/>
			<path class="st4" d="M33.76,84.9c0.33-0.53,0.75-0.9,1.24-1.09c0.49-0.19,0.97-0.15,1.43,0.14c0.51,0.32,0.8,0.73,0.87,1.24
				c0.06,0.5-0.09,1.05-0.46,1.65c-0.38,0.61-0.82,1-1.3,1.17c-0.49,0.17-0.99,0.1-1.5-0.22c-0.46-0.29-0.72-0.7-0.75-1.23
				C33.25,86.02,33.4,85.47,33.76,84.9z M34.29,85.23c-0.27,0.43-0.4,0.83-0.42,1.22c-0.01,0.39,0.14,0.68,0.44,0.87
				c0.34,0.21,0.69,0.25,1.03,0.1c0.34-0.15,0.66-0.46,0.96-0.93c0.6-0.95,0.54-1.65-0.16-2.09c-0.31-0.19-0.63-0.21-0.95-0.06
				C34.87,84.49,34.57,84.79,34.29,85.23z"/>
			<path class="st4" d="M39.37,90.45l-0.82-3.84l-1.24,2.89l-0.52-0.22l1.73-4.02l0.22,0.1l0.83,3.65l1.2-2.78l0.52,0.22l-1.75,4.07
				L39.37,90.45z"/>
			<path class="st4" d="M43.28,91.55l-0.65-2.11c-0.13-0.04-0.33-0.09-0.61-0.19l-0.49,1.85l-0.58-0.16l1.11-4.23
				c0.02,0.01,0.17,0.04,0.46,0.1c0.28,0.06,0.49,0.11,0.61,0.14c1.02,0.27,1.42,0.81,1.21,1.62c-0.07,0.27-0.21,0.48-0.44,0.65
				c-0.22,0.17-0.45,0.25-0.69,0.24l0.71,2.27L43.28,91.55z M42.52,87.37l-0.36,1.38c0.13,0.05,0.27,0.1,0.4,0.13
				c0.35,0.09,0.61,0.1,0.8,0.03c0.19-0.07,0.32-0.25,0.39-0.54c0.06-0.24,0.02-0.43-0.12-0.58c-0.14-0.15-0.39-0.27-0.76-0.36
				C42.81,87.42,42.69,87.4,42.52,87.37z"/>
			<path class="st4" d="M44.97,89.66c0.07-0.63,0.29-1.14,0.65-1.52c0.36-0.39,0.81-0.56,1.34-0.5c0.6,0.06,1.04,0.31,1.32,0.73
				c0.28,0.42,0.38,0.99,0.3,1.68c-0.08,0.71-0.3,1.26-0.67,1.63c-0.37,0.37-0.85,0.52-1.45,0.45c-0.55-0.06-0.95-0.32-1.21-0.78
				C44.99,90.89,44.9,90.32,44.97,89.66z M45.6,89.72c-0.05,0.5,0,0.93,0.16,1.28c0.16,0.36,0.42,0.55,0.77,0.59
				c0.4,0.04,0.73-0.08,0.97-0.36c0.24-0.28,0.4-0.7,0.46-1.26c0.12-1.12-0.23-1.73-1.06-1.81c-0.37-0.04-0.66,0.08-0.88,0.36
				C45.79,88.81,45.65,89.21,45.6,89.72z"/>
			<path class="st4" d="M50.06,88.42l0.03,1.22l1.42-0.03l0.01,0.51l-1.42,0.03l0.04,1.57l1.98-0.05l0.01,0.54l-2.58,0.06l-0.1-4.37
				l2.58-0.06l0.01,0.54L50.06,88.42z"/>
			<path class="st4" d="M53.34,92.79l0.22-1.45l0.62-0.07l-0.47,1.48L53.34,92.79z"/>
			<path class="st4" d="M60.94,90.38l-1.32-2.53l-0.07,3.02l-0.14,0.04l-1.78-2.45l0.34,2.83l-0.54,0.17l-0.51-4.42l0.26-0.08
				l1.94,2.74l-0.03-3.33l0.26-0.08l2.14,3.91L60.94,90.38z"/>
			<path class="st4" d="M62.4,89.76l-1.77-4l0.55-0.24l1.78,4L62.4,89.76z"/>
			<path class="st4" d="M64.53,83.88l0.08,0.54c-0.23-0.03-0.53,0.07-0.88,0.27c-0.33,0.19-0.51,0.49-0.55,0.89
				c-0.03,0.4,0.08,0.83,0.34,1.28c0.25,0.43,0.56,0.72,0.91,0.87c0.36,0.15,0.7,0.13,1.03-0.06c0.35-0.21,0.55-0.49,0.6-0.85
				l0.51,0.23c-0.13,0.47-0.43,0.84-0.9,1.11c-0.49,0.29-0.98,0.33-1.47,0.14c-0.49-0.19-0.9-0.58-1.24-1.16
				c-0.33-0.57-0.45-1.12-0.36-1.67c0.09-0.55,0.37-0.97,0.85-1.24C63.86,84,64.22,83.88,64.53,83.88z"/>
			<path class="st4" d="M69.76,85.18l-1.32-1.65l-1.5,1.2l1.32,1.65l-0.46,0.37l-2.74-3.41l0.47-0.37l1.1,1.37l1.49-1.2l-1.1-1.37
				l0.47-0.37l2.74,3.41L69.76,85.18z"/>
			<path class="st4" d="M70.99,82.85c0.09-0.09,0.19-0.13,0.32-0.14c0.12,0,0.23,0.04,0.32,0.13c0.09,0.09,0.13,0.19,0.14,0.31
				c0,0.13-0.04,0.23-0.12,0.32c-0.08,0.09-0.19,0.13-0.32,0.13c-0.12,0-0.23-0.04-0.32-0.13c-0.09-0.09-0.13-0.19-0.13-0.32
				C70.87,83.04,70.91,82.94,70.99,82.85z"/>
		</g>
		<g>
			<g>
				<path class="st4" d="M88.44,31.37c0.34-0.05,0.84-0.09,1.3-0.09c0.72,0,1.2,0.1,1.53,0.32c0.26,0.17,0.42,0.43,0.42,0.74
					c0,0.5-0.44,0.84-0.99,0.98v0.01c0.4,0.1,0.64,0.38,0.77,0.78c0.17,0.54,0.3,0.91,0.4,1.06h-0.7c-0.09-0.11-0.2-0.43-0.35-0.92
					c-0.15-0.53-0.44-0.73-1.05-0.75h-0.64v1.67h-0.68V31.37z M89.12,33.12h0.69c0.72,0,1.19-0.29,1.19-0.73
					c0-0.5-0.49-0.71-1.21-0.71c-0.33,0-0.56,0.02-0.67,0.04V33.12z"/>
			</g>
			<path class="st8" d="M93.1,33.16c0,1.7-1.38,3.08-3.09,3.08c-1.7,0-3.08-1.38-3.08-3.08c0-1.7,1.38-3.08,3.08-3.08
				C91.72,30.07,93.1,31.45,93.1,33.16z"/>
		</g>
		<path class="st4" d="M42.5,49.71h10.8c1.81,0,3.19,0.52,4.16,1.56c0.96,1.04,1.45,2.32,1.45,3.85c0,1.28-0.35,2.39-1.03,3.31
			c-0.45,0.61-1.12,1.1-2.01,1.45c1.33,0.37,2.31,1.02,2.94,1.93c0.63,0.92,0.94,2.07,0.94,3.45c0,1.12-0.23,2.14-0.67,3.04
			c-0.45,0.9-1.06,1.61-1.84,2.13c-0.49,0.33-1.22,0.56-2.19,0.71c-1.29,0.2-2.15,0.3-2.58,0.3H42.5V49.71z M48.31,58.25h2.54
			c0.91,0,1.54-0.18,1.89-0.54c0.35-0.36,0.53-0.88,0.53-1.56c0-0.63-0.18-1.13-0.53-1.48c-0.36-0.36-0.97-0.53-1.86-0.53h-2.57
			V58.25z M48.31,66.79h2.97c0.99,0,1.69-0.21,2.11-0.62C53.79,65.76,54,65.2,54,64.51c0-0.65-0.2-1.16-0.61-1.55
			c-0.4-0.39-1.12-0.59-2.13-0.59h-2.95V66.79z"/>
		<line class="st9" x1="15.37" y1="49.71" x2="15.28" y2="30.3"/>
		<line class="st9" x1="84.59" y1="30.23" x2="84.67" y2="49.4"/>
		<polyline class="st8" points="49.82,11.11 37.1,4.93 2.46,24.23 15.22,30.27 		"/>
		<g>
			<path class="st4" d="M54.67,17.95l-1.17-0.68v-0.94c0-0.27-0.01-0.45-0.04-0.54c-0.03-0.08-0.08-0.15-0.17-0.2
				c-0.1-0.06-0.16-0.05-0.19,0.01c-0.03,0.07-0.04,0.24-0.04,0.51v2.52c0,0.27,0.01,0.44,0.04,0.54c0.03,0.1,0.08,0.17,0.18,0.22
				c0.09,0.05,0.15,0.05,0.17-0.02c0.03-0.07,0.04-0.25,0.04-0.55v-0.68l1.17,0.68v0.21c0,0.56-0.03,0.94-0.1,1.13
				c-0.06,0.2-0.21,0.32-0.44,0.36c-0.23,0.05-0.5-0.02-0.83-0.22c-0.34-0.2-0.63-0.44-0.85-0.72c-0.23-0.28-0.37-0.57-0.45-0.88
				c-0.07-0.31-0.11-0.72-0.11-1.26V15.9c0-0.4,0.01-0.68,0.03-0.86c0.02-0.18,0.09-0.33,0.2-0.45c0.11-0.12,0.26-0.17,0.46-0.16
				c0.2,0.01,0.43,0.09,0.68,0.24c0.35,0.2,0.63,0.45,0.86,0.74c0.22,0.29,0.37,0.58,0.44,0.86c0.07,0.28,0.11,0.68,0.11,1.18V17.95
				z"/>
			<path class="st4" d="M58.06,20.71c0,0.54-0.01,0.92-0.03,1.14c-0.02,0.21-0.09,0.38-0.2,0.5c-0.11,0.12-0.26,0.18-0.45,0.17
				c-0.19-0.01-0.42-0.09-0.67-0.23c-0.24-0.14-0.46-0.31-0.65-0.52c-0.19-0.21-0.35-0.44-0.46-0.69c-0.12-0.26-0.19-0.5-0.21-0.74
				c-0.02-0.24-0.03-0.63-0.03-1.19v-0.93c0-0.55,0.01-0.92,0.03-1.14c0.02-0.21,0.09-0.38,0.2-0.5c0.11-0.12,0.26-0.18,0.45-0.17
				c0.19,0.01,0.42,0.09,0.67,0.24c0.24,0.14,0.46,0.31,0.65,0.52c0.19,0.21,0.34,0.43,0.46,0.69c0.12,0.26,0.19,0.5,0.21,0.74
				c0.02,0.23,0.03,0.63,0.03,1.19V20.71z M56.88,18.26c0-0.25-0.01-0.42-0.04-0.51c-0.02-0.08-0.07-0.14-0.14-0.19
				c-0.06-0.03-0.11-0.03-0.14,0c-0.03,0.04-0.05,0.2-0.05,0.48v2.53c0,0.32,0.01,0.52,0.03,0.6c0.02,0.08,0.07,0.15,0.15,0.2
				c0.08,0.05,0.13,0.04,0.15-0.04c0.02-0.07,0.03-0.27,0.03-0.59V18.26z"/>
			<path class="st4" d="M58.78,17.96l0.83,0.48c0.56,0.32,0.93,0.56,1.12,0.72c0.19,0.16,0.36,0.39,0.48,0.67
				c0.12,0.28,0.19,0.65,0.19,1.12c0,0.42-0.04,0.68-0.13,0.77c-0.08,0.1-0.26,0.09-0.52-0.03c0.23,0.2,0.39,0.38,0.47,0.54
				c0.08,0.17,0.13,0.3,0.15,0.41c0.02,0.11,0.03,0.38,0.03,0.82v1.43l-1.1-0.63v-1.8c0-0.29-0.02-0.48-0.05-0.57
				c-0.04-0.09-0.14-0.18-0.3-0.28v2.45l-1.17-0.68V17.96z M59.96,19.57v1.2c0.13,0.08,0.22,0.11,0.27,0.09
				c0.05-0.01,0.08-0.14,0.08-0.38v-0.3c0-0.17-0.02-0.3-0.07-0.38C60.18,19.73,60.09,19.65,59.96,19.57z"/>
			<path class="st4" d="M62.15,19.9l0.83,0.48c0.55,0.32,0.93,0.56,1.12,0.73c0.19,0.16,0.36,0.39,0.48,0.67
				c0.13,0.28,0.19,0.65,0.19,1.11c0,0.42-0.05,0.68-0.13,0.77c-0.09,0.1-0.26,0.08-0.52-0.04c0.23,0.2,0.39,0.39,0.47,0.55
				c0.08,0.16,0.13,0.3,0.15,0.41c0.02,0.11,0.03,0.38,0.03,0.82v1.43l-1.1-0.63v-1.8c0-0.29-0.02-0.48-0.06-0.57
				c-0.04-0.09-0.14-0.18-0.3-0.27V26l-1.17-0.68V19.9z M63.32,21.51v1.2c0.13,0.07,0.22,0.11,0.28,0.09
				c0.05-0.01,0.08-0.14,0.08-0.38v-0.3c0-0.17-0.03-0.3-0.08-0.38C63.55,21.67,63.46,21.59,63.32,21.51z"/>
			<path class="st4" d="M68.18,23.39V27c0,0.41-0.01,0.7-0.03,0.85c-0.02,0.15-0.09,0.28-0.2,0.4c-0.11,0.11-0.26,0.16-0.44,0.15
				c-0.18-0.01-0.39-0.09-0.64-0.23c-0.27-0.15-0.51-0.35-0.71-0.57c-0.21-0.23-0.36-0.46-0.46-0.69c-0.1-0.23-0.16-0.45-0.18-0.65
				c-0.02-0.21-0.03-0.61-0.03-1.22v-3.2l1.17,0.68v4.06c0,0.24,0.01,0.39,0.03,0.47c0.02,0.07,0.06,0.13,0.13,0.17
				c0.07,0.04,0.12,0.03,0.14-0.03c0.02-0.06,0.04-0.22,0.04-0.49v-3.99L68.18,23.39z"/>
			<path class="st4" d="M71.61,27.37l-1.17-0.68V26.2c0-0.31-0.01-0.51-0.03-0.6c-0.02-0.09-0.08-0.17-0.16-0.21
				c-0.07-0.04-0.13-0.04-0.15,0.02c-0.02,0.05-0.04,0.22-0.04,0.49v2.6c0,0.24,0.01,0.41,0.04,0.5c0.02,0.09,0.07,0.16,0.16,0.21
				c0.08,0.05,0.14,0.04,0.18-0.03c0.03-0.07,0.05-0.23,0.05-0.48v-0.64l-0.24-0.14v-0.82l1.37,0.79v2.91l-0.74-0.43l-0.1-0.45
				c-0.08,0.13-0.18,0.19-0.31,0.2c-0.12,0.01-0.27-0.03-0.43-0.12c-0.2-0.11-0.38-0.28-0.56-0.49c-0.17-0.21-0.3-0.43-0.39-0.65
				c-0.09-0.22-0.14-0.43-0.17-0.63c-0.02-0.2-0.03-0.48-0.03-0.86v-1.61c0-0.52,0.02-0.88,0.07-1.09c0.05-0.21,0.18-0.34,0.4-0.41
				c0.22-0.07,0.5,0,0.85,0.2c0.34,0.2,0.63,0.45,0.86,0.75c0.22,0.3,0.37,0.59,0.44,0.86c0.07,0.27,0.1,0.63,0.1,1.08V27.37z"/>
			<path class="st4" d="M74.38,26.97l0.68,5.8l-1.2-0.69l-0.07-1.01l-0.42-0.25l-0.07,0.94l-1.22-0.71l0.6-5.07L74.38,26.97z
				 M73.77,30.1c-0.06-0.65-0.12-1.44-0.18-2.38c-0.11,0.97-0.19,1.69-0.23,2.14L73.77,30.1z"/>
			<path class="st4" d="M77.59,28.82v1.08l-0.7-0.41v4.34l-1.17-0.68v-4.33l-0.69-0.4v-1.08L77.59,28.82z"/>
			<path class="st4" d="M78.15,29.14l1.95,1.13v1.08l-0.78-0.45v1.03l0.73,0.42v1.03l-0.73-0.42v1.19l0.86,0.5v1.08l-2.03-1.17
				V29.14z"/>
			<path class="st4" d="M80.81,30.68l0.88,0.51c0.56,0.33,0.95,0.58,1.15,0.76c0.2,0.18,0.35,0.37,0.46,0.57
				c0.1,0.2,0.17,0.4,0.2,0.59c0.02,0.19,0.04,0.54,0.04,1.06v1.9c0,0.49-0.02,0.8-0.06,0.94c-0.04,0.14-0.1,0.23-0.2,0.27
				c-0.09,0.04-0.21,0.03-0.35-0.01c-0.14-0.04-0.35-0.15-0.63-0.31l-1.49-0.86V30.68z M81.98,32.29v3.56
				c0.17,0.09,0.27,0.11,0.31,0.06c0.04-0.06,0.06-0.27,0.06-0.63v-2.1c0-0.25,0-0.41-0.02-0.48c-0.01-0.08-0.04-0.15-0.09-0.2
				C82.2,32.43,82.11,32.36,81.98,32.29z"/>
		</g>
		<path class="st4" d="M15.3,30.21l34.64-19.42v13.89c0,0-23.4-1.3-34.47,24.03L15.3,30.21z"/>
		<g>
			<path class="st3" d="M17.09,30.88l5.63-3.25c0.94-0.54,1.66-0.79,2.16-0.76c0.5,0.04,0.75,0.3,0.75,0.79
				c0,0.4-0.18,0.85-0.54,1.35c-0.24,0.33-0.59,0.69-1.04,1.07c0.7-0.28,1.21-0.37,1.53-0.28c0.33,0.1,0.49,0.37,0.49,0.81
				c0,0.35-0.12,0.74-0.35,1.16c-0.23,0.42-0.55,0.83-0.96,1.23c-0.25,0.25-0.63,0.54-1.14,0.88c-0.68,0.45-1.13,0.74-1.35,0.87
				l-5.19,2.99V30.88z M20.13,31.82l1.31-0.76c0.47-0.27,0.8-0.52,0.98-0.74c0.18-0.22,0.28-0.44,0.28-0.65
				c0-0.2-0.09-0.3-0.28-0.31c-0.18-0.01-0.5,0.12-0.96,0.38l-1.33,0.77V31.82z M20.13,34.52l1.53-0.88
				c0.52-0.3,0.88-0.57,1.09-0.83c0.21-0.25,0.32-0.49,0.32-0.71c0-0.2-0.11-0.3-0.31-0.3c-0.21,0-0.58,0.15-1.1,0.45l-1.52,0.88
				V34.52z"/>
			<path class="st3" d="M33.27,27.29l-3.41,1.97l-0.48,1.4l-3.06,1.77l3.63-8.97l3.29-1.9l3.66,4.76l-3.14,1.81L33.27,27.29z
				 M32.63,26.18l-1.07-1.86l-1.07,3.1L32.63,26.18z"/>
			<path class="st3" d="M35.58,20.21l3.33-1.92l1.96,1.19l1.96-3.46l3.31-1.91l-3.77,6.17v2.88l-3.01,1.74v-2.88L35.58,20.21z"/>
		</g>
		<path class="st10" d="M97.29,23.99"/>
		<path class="st11" d="M49.91,11.35"/>
		<line class="st9" x1="49.96" y1="11.23" x2="49.96" y2="24.81"/>
		<path class="st12" d="M15.53,49.47c5.01-14.27,18.6-24.5,34.59-24.5c15.97,0,29.56,10.23,34.58,24.49"/>
	</g>
</g>
</svg>
