<?xml version="1.0" encoding="utf-8"?>
<!-- Generator: Adobe Illustrator 23.0.3, SVG Export Plug-In . SVG Version: 6.00 Build 0)  -->
<svg version="1.1" id="Layer_1" xmlns="http://www.w3.org/2000/svg" xmlns:xlink="http://www.w3.org/1999/xlink" x="0px" y="0px"
	 viewBox="0 0 32 32" style="enable-background:new 0 0 32 32;" xml:space="preserve">
<style type="text/css">
	.st0{fill:#001689;}
</style>
<g>
	<g>
		<g>
			<polygon class="st0" points="24.5,2.9 24.5,5.4 27.2,5.4 27.2,27.5 4.3,27.5 4.3,5.4 7,5.4 7,2.9 1.7,2.9 1.7,30 29.7,30 
				29.7,2.9 			"/>
			<rect x="13" y="2.9" class="st0" width="5.4" height="2.5"/>
			<rect x="6.9" y="15.8" class="st0" width="4.6" height="3.3"/>
			<rect x="13.4" y="15.8" class="st0" width="4.6" height="3.3"/>
			<rect x="20" y="15.8" class="st0" width="4.5" height="3.3"/>
			<rect x="6.9" y="21.7" class="st0" width="4.6" height="3.3"/>
			<rect x="13.4" y="21.7" class="st0" width="4.6" height="3.3"/>
			<rect x="20" y="21.7" class="st0" width="4.5" height="3.3"/>
			<rect x="6.9" y="10" class="st0" width="4.6" height="3.3"/>
			<rect x="13.4" y="10" class="st0" width="4.6" height="3.3"/>
			<rect x="20" y="10" class="st0" width="4.5" height="3.3"/>
			<rect x="8.2" y="0.8" class="st0" width="3.5" height="6.7"/>
			<rect x="19.7" y="0.8" class="st0" width="3.5" height="6.7"/>
		</g>
	</g>
</g>
</svg>
