<?xml version="1.0" encoding="utf-8"?>
<!-- Generator: Adobe Illustrator 23.0.3, SVG Export Plug-In . SVG Version: 6.00 Build 0)  -->
<svg version="1.1" id="Layer_1" xmlns="http://www.w3.org/2000/svg" xmlns:xlink="http://www.w3.org/1999/xlink" x="0px" y="0px"
	 viewBox="0 0 24 24" style="enable-background:new 0 0 24 24;" xml:space="preserve">
<style type="text/css">
	.st0{display:none;}
	.st1{display:inline;fill-rule:evenodd;clip-rule:evenodd;fill:#004990;}
	.st2{fill-rule:evenodd;clip-rule:evenodd;fill:#FFFFFF;}
</style>
<g class="st0">
	<path id="Oval-1_2_" class="st1" d="M12,24c6.63,0,12-5.37,12-12S18.63,0,12,0S0,5.37,0,12S5.37,24,12,24z M12,22.56
		c5.83,0,10.56-4.73,10.56-10.56S17.83,1.44,12,1.44S1.44,6.17,1.44,12S6.17,22.56,12,22.56z M12.87,17.28V12h1.56l0.21-1.82h-1.77
		V9.27c0-0.47,0.05-0.73,0.78-0.73h0.98V6.72h-1.56c-1.88,0-2.54,0.88-2.54,2.37v1.09H9.36V12h1.17v5.28H12.87z"/>
</g>
<g>
	<path id="Oval-1" class="st2" d="M12,24c6.63,0,12-5.37,12-12S18.63,0,12,0S0,5.37,0,12S5.37,24,12,24z M12,22.56
		c5.83,0,10.56-4.73,10.56-10.56S17.83,1.44,12,1.44S1.44,6.17,1.44,12S6.17,22.56,12,22.56z M11.85,9.87l0.02,0.39l-0.38-0.05
		c-1.39-0.19-2.6-0.81-3.63-1.87l-0.5-0.52L7.22,8.21c-0.27,0.86-0.1,1.77,0.47,2.38C8,10.93,7.93,10.98,7.4,10.78
		c-0.18-0.06-0.34-0.11-0.36-0.09c-0.05,0.06,0.13,0.79,0.27,1.08c0.2,0.4,0.6,0.8,1.05,1.03l0.37,0.19l-0.43,0
		c-0.43,0-0.44,0.01-0.4,0.18c0.15,0.52,0.76,1.08,1.43,1.32l0.47,0.17l-0.41,0.26c-0.61,0.37-1.33,0.58-2.04,0.6
		c-0.35,0-0.63,0.03-0.63,0.05c0,0.08,0.93,0.53,1.47,0.71c1.63,0.52,3.56,0.3,5.01-0.6c1.03-0.64,2.06-1.9,2.54-3.12
		c0.26-0.65,0.52-1.84,0.52-2.42c0-0.37,0.02-0.42,0.45-0.86c0.25-0.26,0.49-0.54,0.53-0.62c0.08-0.15,0.07-0.15-0.32-0.02
		c-0.65,0.24-0.74,0.21-0.42-0.15c0.24-0.26,0.52-0.72,0.52-0.86c0-0.02-0.11,0.02-0.24,0.09c-0.14,0.08-0.44,0.2-0.67,0.27
		L15.7,8.13l-0.37-0.27c-0.21-0.14-0.5-0.31-0.65-0.35c-0.39-0.11-0.98-0.1-1.34,0.03C12.38,7.91,11.78,8.84,11.85,9.87
		C11.85,9.87,11.78,8.84,11.85,9.87z"/>
</g>
</svg>
